<?xml version="1.0" encoding="UTF-8" standalone="no"?>
<!-- Created with Inkscape (http://www.inkscape.org/) -->

<svg
   width="216mm"
   height="216mm"
   viewBox="0 0 216 216"
   version="1.1"
   id="svg1"
   xml:space="preserve"
   inkscape:version="1.3 (0e150ed6c4, 2023-07-21)"
   sodipodi:docname="flower color square white.svg"
   inkscape:export-filename="flower color square.svg"
   inkscape:export-xdpi="96"
   inkscape:export-ydpi="96"
   xmlns:inkscape="http://www.inkscape.org/namespaces/inkscape"
   xmlns:sodipodi="http://sodipodi.sourceforge.net/DTD/sodipodi-0.dtd"
   xmlns:xlink="http://www.w3.org/1999/xlink"
   xmlns="http://www.w3.org/2000/svg"
   xmlns:svg="http://www.w3.org/2000/svg"><sodipodi:namedview
     id="namedview1"
     pagecolor="#ffffff"
     bordercolor="#999999"
     borderopacity="1"
     inkscape:showpageshadow="2"
     inkscape:pageopacity="0"
     inkscape:pagecheckerboard="0"
     inkscape:deskcolor="#d1d1d1"
     inkscape:document-units="mm"
     inkscape:zoom="1.0847363"
     inkscape:cx="445.26951"
     inkscape:cy="451.26175"
     inkscape:window-width="1920"
     inkscape:window-height="1057"
     inkscape:window-x="-8"
     inkscape:window-y="-8"
     inkscape:window-maximized="1"
     inkscape:current-layer="g24"
     showguides="true" /><defs
     id="defs1"><linearGradient
       id="linearGradient4"
       inkscape:collect="always"><stop
         style="stop-color:#f700d7;stop-opacity:1;"
         offset="0.2484148"
         id="stop3" /><stop
         style="stop-color:#ffffff;stop-opacity:0.49382716;"
         offset="1"
         id="stop4" /></linearGradient><linearGradient
       id="linearGradient2"
       inkscape:collect="always"><stop
         style="stop-color:#ff03dd;stop-opacity:1;"
         offset="0.53591478"
         id="stop1" /><stop
         style="stop-color:#ffffff;stop-opacity:1;"
         offset="1"
         id="stop2" /></linearGradient><linearGradient
       id="linearGradient5"
       inkscape:collect="always"><stop
         style="stop-color:#f100fd;stop-opacity:1;"
         offset="0"
         id="stop6" /><stop
         style="stop-color:#ffffff;stop-opacity:0;"
         offset="1"
         id="stop7" /></linearGradient><inkscape:path-effect
       effect="perspective-envelope"
       up_left_point="88.434071,14.89565"
       up_right_point="108.26193,14.89565"
       down_left_point="90.981682,125.39543"
       down_right_point="105.71432,125.39543"
       id="path-effect3"
       is_visible="true"
       lpeversion="1"
       deform_type="envelope_deformation"
       horizontal_mirror="false"
       vertical_mirror="false"
       overflow_perspective="false" /><radialGradient
       inkscape:collect="always"
       xlink:href="#linearGradient5"
       id="radialGradient7"
       cx="108.04616"
       cy="198.40331"
       fx="108.04616"
       fy="198.40331"
       r="103.85243"
       gradientTransform="matrix(0.66251007,-0.42557534,0.53098204,0.82660084,-69.653704,73.281651)"
       gradientUnits="userSpaceOnUse" /><radialGradient
       inkscape:collect="always"
       xlink:href="#linearGradient2"
       id="radialGradient12"
       cx="101.38586"
       cy="197.68236"
       fx="101.38586"
       fy="197.68236"
       r="103.85243"
       gradientTransform="matrix(0.72552149,-0.47111608,0.56326418,0.86743014,-81.04327,68.564742)"
       gradientUnits="userSpaceOnUse" /><radialGradient
       inkscape:collect="always"
       xlink:href="#linearGradient5"
       id="radialGradient1"
       gradientUnits="userSpaceOnUse"
       gradientTransform="matrix(0.66251007,-0.42557534,0.53098204,0.82660084,-69.653704,73.281651)"
       cx="108.04616"
       cy="198.40331"
       fx="108.04616"
       fy="198.40331"
       r="103.85243" /><radialGradient
       inkscape:collect="always"
       xlink:href="#linearGradient5"
       id="radialGradient2"
       gradientUnits="userSpaceOnUse"
       gradientTransform="matrix(0.66251007,-0.42557534,0.53098204,0.82660084,-69.653704,73.281651)"
       cx="108.04616"
       cy="198.40331"
       fx="108.04616"
       fy="198.40331"
       r="103.85243" /><radialGradient
       inkscape:collect="always"
       xlink:href="#linearGradient5"
       id="radialGradient3"
       gradientUnits="userSpaceOnUse"
       gradientTransform="matrix(0.66251007,-0.42557534,0.53098204,0.82660084,-69.653704,73.281651)"
       cx="108.04616"
       cy="198.40331"
       fx="108.04616"
       fy="198.40331"
       r="103.85243" /><radialGradient
       inkscape:collect="always"
       xlink:href="#linearGradient5"
       id="radialGradient4"
       gradientUnits="userSpaceOnUse"
       gradientTransform="matrix(0.66251007,-0.42557534,0.53098204,0.82660084,-69.653704,73.281651)"
       cx="108.04616"
       cy="198.40331"
       fx="108.04616"
       fy="198.40331"
       r="103.85243" /><radialGradient
       inkscape:collect="always"
       xlink:href="#linearGradient5"
       id="radialGradient5"
       gradientUnits="userSpaceOnUse"
       gradientTransform="matrix(0.66251007,-0.42557534,0.53098204,0.82660084,-69.653704,73.281651)"
       cx="108.04616"
       cy="198.40331"
       fx="108.04616"
       fy="198.40331"
       r="103.85243" /><radialGradient
       inkscape:collect="always"
       xlink:href="#linearGradient5"
       id="radialGradient6"
       gradientUnits="userSpaceOnUse"
       gradientTransform="matrix(0.66251007,-0.42557534,0.53098204,0.82660084,-69.653704,73.281651)"
       cx="108.04616"
       cy="198.40331"
       fx="108.04616"
       fy="198.40331"
       r="103.85243" /><radialGradient
       inkscape:collect="always"
       xlink:href="#linearGradient5"
       id="radialGradient8"
       gradientUnits="userSpaceOnUse"
       gradientTransform="matrix(0.66251007,-0.42557534,0.53098204,0.82660084,-69.653704,73.281651)"
       cx="108.04616"
       cy="198.40331"
       fx="108.04616"
       fy="198.40331"
       r="103.85243" /><radialGradient
       inkscape:collect="always"
       xlink:href="#linearGradient5"
       id="radialGradient9"
       gradientUnits="userSpaceOnUse"
       gradientTransform="matrix(0.66251007,-0.42557534,0.53098204,0.82660084,-69.653704,73.281651)"
       cx="108.04616"
       cy="198.40331"
       fx="108.04616"
       fy="198.40331"
       r="103.85243" /><radialGradient
       inkscape:collect="always"
       xlink:href="#linearGradient5"
       id="radialGradient10"
       gradientUnits="userSpaceOnUse"
       gradientTransform="matrix(0.66251007,-0.42557534,0.53098204,0.82660084,-69.653704,73.281651)"
       cx="108.04616"
       cy="198.40331"
       fx="108.04616"
       fy="198.40331"
       r="103.85243" /><radialGradient
       inkscape:collect="always"
       xlink:href="#linearGradient5"
       id="radialGradient11"
       gradientUnits="userSpaceOnUse"
       gradientTransform="matrix(0.66251007,-0.42557534,0.53098204,0.82660084,-69.653704,73.281651)"
       cx="108.04616"
       cy="198.40331"
       fx="108.04616"
       fy="198.40331"
       r="103.85243" /><radialGradient
       inkscape:collect="always"
       xlink:href="#linearGradient5"
       id="radialGradient13"
       gradientUnits="userSpaceOnUse"
       gradientTransform="matrix(0.66251007,-0.42557534,0.53098204,0.82660084,-69.653704,73.281651)"
       cx="108.04616"
       cy="198.40331"
       fx="108.04616"
       fy="198.40331"
       r="103.85243" /><radialGradient
       inkscape:collect="always"
       xlink:href="#linearGradient5"
       id="radialGradient14"
       gradientUnits="userSpaceOnUse"
       gradientTransform="matrix(0.66251007,-0.42557534,0.53098204,0.82660084,-69.653704,73.281651)"
       cx="108.04616"
       cy="198.40331"
       fx="108.04616"
       fy="198.40331"
       r="103.85243" /><radialGradient
       inkscape:collect="always"
       xlink:href="#linearGradient5"
       id="radialGradient15"
       gradientUnits="userSpaceOnUse"
       gradientTransform="matrix(0.66251007,-0.42557534,0.53098204,0.82660084,-69.653704,73.281651)"
       cx="108.04616"
       cy="198.40331"
       fx="108.04616"
       fy="198.40331"
       r="103.85243" /><radialGradient
       inkscape:collect="always"
       xlink:href="#linearGradient5"
       id="radialGradient16"
       gradientUnits="userSpaceOnUse"
       gradientTransform="matrix(0.66251007,-0.42557534,0.53098204,0.82660084,-69.653704,73.281651)"
       cx="108.04616"
       cy="198.40331"
       fx="108.04616"
       fy="198.40331"
       r="103.85243" /><radialGradient
       inkscape:collect="always"
       xlink:href="#linearGradient5"
       id="radialGradient17"
       gradientUnits="userSpaceOnUse"
       gradientTransform="matrix(0.66251007,-0.42557534,0.53098204,0.82660084,-69.653704,73.281651)"
       cx="108.04616"
       cy="198.40331"
       fx="108.04616"
       fy="198.40331"
       r="103.85243" /><radialGradient
       inkscape:collect="always"
       xlink:href="#linearGradient5"
       id="radialGradient18"
       gradientUnits="userSpaceOnUse"
       gradientTransform="matrix(0.66251007,-0.42557534,0.53098204,0.82660084,-69.653704,73.281651)"
       cx="108.04616"
       cy="198.40331"
       fx="108.04616"
       fy="198.40331"
       r="103.85243" /><radialGradient
       inkscape:collect="always"
       xlink:href="#linearGradient5"
       id="radialGradient19"
       gradientUnits="userSpaceOnUse"
       gradientTransform="matrix(0.66251007,-0.42557534,0.53098204,0.82660084,-69.653704,73.281651)"
       cx="108.04616"
       cy="198.40331"
       fx="108.04616"
       fy="198.40331"
       r="103.85243" /><radialGradient
       inkscape:collect="always"
       xlink:href="#linearGradient5"
       id="radialGradient20"
       gradientUnits="userSpaceOnUse"
       gradientTransform="matrix(0.66251007,-0.42557534,0.53098204,0.82660084,-69.653704,73.281651)"
       cx="108.04616"
       cy="198.40331"
       fx="108.04616"
       fy="198.40331"
       r="103.85243" /><radialGradient
       inkscape:collect="always"
       xlink:href="#linearGradient5"
       id="radialGradient21"
       gradientUnits="userSpaceOnUse"
       gradientTransform="matrix(0.66251007,-0.42557534,0.53098204,0.82660084,-69.653704,73.281651)"
       cx="108.04616"
       cy="198.40331"
       fx="108.04616"
       fy="198.40331"
       r="103.85243" /><radialGradient
       inkscape:collect="always"
       xlink:href="#linearGradient5"
       id="radialGradient22"
       gradientUnits="userSpaceOnUse"
       gradientTransform="matrix(0.66251007,-0.42557534,0.53098204,0.82660084,-69.653704,73.281651)"
       cx="108.04616"
       cy="198.40331"
       fx="108.04616"
       fy="198.40331"
       r="103.85243" /><radialGradient
       inkscape:collect="always"
       xlink:href="#linearGradient5"
       id="radialGradient23"
       gradientUnits="userSpaceOnUse"
       gradientTransform="matrix(0.66251007,-0.42557534,0.53098204,0.82660084,-69.653704,73.281651)"
       cx="108.04616"
       cy="198.40331"
       fx="108.04616"
       fy="198.40331"
       r="103.85243" /><radialGradient
       inkscape:collect="always"
       xlink:href="#linearGradient4"
       id="radialGradient37"
       cx="104.8374"
       cy="173.2505"
       fx="104.8374"
       fy="173.2505"
       r="103.85243"
       gradientTransform="matrix(1,0,0,0.79472838,0,35.56341)"
       gradientUnits="userSpaceOnUse" /></defs><g
     inkscape:groupmode="layer"
     id="layer3"
     inkscape:label="Layer 1"
     style="display:inline"><g
       id="g24"
       transform="translate(2.9269785,-64.467729)"
       style="fill:#ffffff;fill-opacity:0"><g
         id="g6"
         style="display:inline;fill:url(#radialGradient4);stroke-width:1;stroke-dasharray:none"><path
           style="display:inline;fill:url(#radialGradient1);fill-opacity:0;stroke:#ffffff;stroke-width:1;stroke-dasharray:none;stroke-opacity:1"
           d="m 3.0427083,150.54791 c 33.9538077,25.60819 62.7723337,17.07124 79.0716697,27.18011 5.074131,3.14698 4.826551,5.6038 5.232644,7.81717"
           id="path5"
           sodipodi:nodetypes="csc" /><path
           style="fill:url(#radialGradient2);fill-opacity:0;stroke:#ffffff;stroke-width:1;stroke-dasharray:none;stroke-opacity:1"
           d="m 14.218739,155.56423 c 23.63662,15.16057 54.269702,4.15567 67.726098,14.87354 3.558759,2.83452 3.143961,4.2499 3.367596,5.8933"
           id="path6"
           sodipodi:nodetypes="csc" /><path
           style="fill:url(#radialGradient3);fill-opacity:0;stroke:#ffffff;stroke-width:1;stroke-dasharray:none;stroke-opacity:1"
           d="m 27.876211,156.21904 c 27.276688,-2.2514 32.739713,-6.37768 48.268876,6.73519"
           id="path7"
           sodipodi:nodetypes="cc" /></g><g
         id="g5"
         style="display:inline;fill:url(#radialGradient9);stroke-width:1;stroke-dasharray:none"><path
           style="fill:url(#radialGradient5);fill-opacity:0;stroke:#ffffff;stroke-width:1;stroke-dasharray:none;stroke-opacity:1"
           d="m 102.6914,254.09922 c 0,0 18.75095,-22.74914 14.70674,-35.11193 -3.03585,-9.28032 -14.0308,-22.92095 -14.49938,-21.5152"
           id="path8"
           sodipodi:nodetypes="csc" /><path
           style="fill:url(#radialGradient6);fill-opacity:0;stroke:#ffffff;stroke-width:1;stroke-dasharray:none;stroke-opacity:1"
           d="m 111.31776,244.79383 c 2.79031,-2.39188 20.50443,-16.07985 20.29911,-23.46794 -0.2484,-8.93823 -18.98949,-21.42165 -18.98949,-21.42165"
           id="path9"
           sodipodi:nodetypes="csc" /><path
           style="fill:url(#radialGradient8);fill-opacity:0;stroke:#ffffff;stroke-width:1;stroke-dasharray:none;stroke-opacity:1"
           d="m 94.415577,191.18192 c 0,0 -4.993766,3.0991 -4.761357,5.45767 1.739498,17.65308 13.22028,29.09264 15.30252,42.97422 l 0.98222,6.54811"
           id="path10"
           sodipodi:nodetypes="cssc" /></g><g
         id="g7"
         style="display:inline;fill:url(#radialGradient14);stroke-width:1;stroke-dasharray:none"><path
           style="display:inline;fill:url(#radialGradient10);fill-opacity:0;stroke:#ffffff;stroke-width:1;stroke-dasharray:none;stroke-opacity:1"
           d="M 39.158333,94.059374 C 88.779518,117.27818 91.321445,150.55813 94.456249,170.12708"
           id="path1"
           sodipodi:nodetypes="cc" /><path
           style="display:inline;fill:url(#radialGradient11);fill-opacity:0;stroke:#ffffff;stroke-width:1;stroke-dasharray:none;stroke-opacity:1"
           d="m 46.566666,103.71666 c 14.773766,8.50238 23.76463,16.78983 32.940625,50.00625"
           id="path2"
           sodipodi:nodetypes="cc" /><path
           style="display:inline;fill:url(#radialGradient13);fill-opacity:0;stroke:#ffffff;stroke-width:1;stroke-dasharray:none;stroke-opacity:1"
           d="m 79.325595,115.71434 c 0,0 17.320089,11.21296 19.924943,16.93153 3.900982,8.56403 2.151522,26.00532 2.151522,26.00532"
           id="path20"
           sodipodi:nodetypes="csc" /></g><g
         id="g4"
         style="display:inline;fill:url(#radialGradient19);stroke-width:1;stroke-dasharray:none"><path
           style="display:inline;fill:url(#radialGradient15);fill-opacity:0;stroke:#ffffff;stroke-width:1;stroke-dasharray:none;stroke-opacity:1"
           d="m 205.5169,218.61311 c 0,0 -14.58966,-5.02444 -24.60928,-5.47097 -7.27117,-0.32405 -20.40253,6.89223 -27.48437,5.21222 -9.04311,-2.14527 -20.24494,-16.91157 -30.88017,-18.73075"
           id="path11"
           sodipodi:nodetypes="cssc" /><path
           style="display:inline;fill:url(#radialGradient16);fill-opacity:0;stroke:#ffffff;stroke-width:1;stroke-dasharray:none;stroke-opacity:1"
           d="m 182.71995,211.18987 c 0,0 -8.41247,-2.66604 -14.05951,-7.45032 -3.24482,-2.74906 -5.55953,-4.09451 -10.8124,-5.45685 -10.76418,-2.7917 -27.48242,-0.13035 -27.48242,-0.13035"
           id="path12"
           sodipodi:nodetypes="cssc" /><path
           style="display:inline;fill:url(#radialGradient17);fill-opacity:0;stroke:#ffffff;stroke-width:1;stroke-dasharray:none;stroke-opacity:1"
           d="m 168.53958,208.22708 c -7.50889,-4.13214 -14.93033,-8.32788 -28.11198,-8.33438"
           id="path22"
           sodipodi:nodetypes="cc" /><path
           style="display:inline;fill:url(#radialGradient18);fill-opacity:0;stroke:#ffffff;stroke-width:1;stroke-dasharray:none;stroke-opacity:1"
           d="m 134.87135,202.93541 c 17.62266,10.75385 26.85992,10.27127 35.85104,9.45886"
           id="path23"
           sodipodi:nodetypes="cc" /></g><g
         id="g3"
         style="display:inline;fill:url(#radialGradient7);stroke-width:1;stroke-dasharray:none"><path
           style="display:inline;fill:url(#radialGradient20);fill-opacity:0;stroke:#ffffff;stroke-width:1;stroke-dasharray:none;stroke-opacity:1"
           d="m 186.90158,132.17814 c 0,0 -15.04349,34.23086 -29.69781,43.29887 -13.45682,8.327 -44.56377,16.36751 -44.56377,16.36751"
           id="path13"
           sodipodi:nodetypes="csc" /><path
           style="display:inline;fill:url(#radialGradient21);fill-opacity:0;stroke:#ffffff;stroke-width:1;stroke-dasharray:none;stroke-opacity:1"
           d="m 160.90793,146.32133 c 0.22315,-0.2916 -13.18314,-2.51296 -21.21219,3.08778 -5.76509,4.02149 -17.51744,17.099 -17.51744,17.099"
           id="path19"
           sodipodi:nodetypes="csc" /><path
           style="display:inline;fill:url(#radialGradient22);fill-opacity:0;stroke:#ffffff;stroke-width:1;stroke-dasharray:none;stroke-opacity:1"
           d="m 115.70769,183.38094 c 1.30962,0 30.29758,-12.18285 44.37876,-21.66628 8.17597,-5.50638 22.0228,-24.27065 22.01892,-24.27259"
           id="path21"
           sodipodi:nodetypes="csc" /><path
           style="display:inline;fill:url(#radialGradient23);fill-opacity:0;stroke:#ffffff;stroke-width:1;stroke-dasharray:none;stroke-opacity:1"
           d="m 171.22278,144.30005 c -0.10695,0.27539 -2.16016,3.4491 -7.51282,6.42762 -5.35267,2.97852 -20.98841,8.14251 -27.85049,12.5577 -6.86207,4.41519 -11.81187,10.8329 -15.13943,12.70897"
           id="path24"
           sodipodi:nodetypes="cszc" /></g><g
         id="g2"
         style="display:inline;fill:url(#radialGradient12);fill-opacity:0.103704"><path
           id="path18"
           style="display:inline;fill:url(#radialGradient37);fill-opacity:1;stroke:#ffffff;stroke-width:1.25;stroke-dasharray:none;stroke-opacity:1;opacity:1"
           inkscape:label="path18"
           d="m 111.86546,196.62588 c -10.59768,-2.21502 -9.44068,-2.58214 -11.34204,-3.43005 l 0.0152,0.0152 m 0.0136,-0.0403 c -4.180663,-4.27081 -4.047686,-5.21977 -7.788499,-5.1129 m -27.486042,-38.8429 c 0,0 5.574038,2.96966 8.023674,4.93359 3.992894,3.20119 7.65625,6.82905 10.693379,11.01677 1.056638,1.45693 2.759583,4.72147 2.759583,4.72147 0,0 3.170025,5.16421 3.66507,7.63196 0.495044,2.46776 0.54654,3.93449 0.754572,5.86412 0.380719,3.53141 1.533956,4.69305 1.4877,4.69098 m 33.690473,-33.10528 c 0.71723,-0.0366 5.6146,-6.16729 9.64387,-9.06362 5.39477,-3.87787 7.3751,-3.87559 11.41914,-4.47538 5.79115,-0.85891 11.73754,2.37137 17.50865,1.38678 6.46674,-1.10327 11.46242,-4.20716 17.99406,-7.97102 2.74089,-1.57944 4.01464,-4.70282 4.36392,-3.90408 1.60291,5.88871 -8.50244,22.6194 -14.61499,32.97112 -3.77128,6.38673 -7.12916,14.67608 -13.45815,17.71989 -8.08301,3.88737 -16.93662,11.17705 -16.76238,11.54835 l -30.73328,3.41481 c 6.8877,2.2163 8.99821,5.69761 13.61866,8.29818 5.52807,3.11142 7.15928,5.62147 12.24604,8.99147 0.89106,1.00714 3.9996,3.02055 3.88634,3.90858 -0.23184,3.90262 2.31809,5.97267 2.31637,8.27235 -1.75572,3.91804 -8.80688,5.77655 -14.31953,10.55979 -5.83233,3.47463 -11.56781,7.11 -18.42297,10.24442 -2.65927,2.7812 -5.38458,5.52937 -8.72303,7.97098 -0.32663,-0.663 0.34585,-2.19488 0.66031,-3.80286 0.5779,-2.95509 0.66918,-4.15778 0.44471,-6.39168 -2.7809,-5.10308 -4.207025,-11.69936 -6.620961,-17.19589 -4.934,-11.23469 -9.634877,-22.29101 -13.235909,-34.88057 0.557601,-2.70295 1.680842,-2.97279 2.294997,-3.78004 l 6.915855,-0.73175 -6.946584,0.73584 c -6.689846,-3.72211 -15.57355,-6.00189 -23.031275,-8.51836 -6.214713,-2.09703 -12.336055,-4.13773 -18.647439,-6.36454 -7.430981,-1.23921 -12.87441,-4.71442 -19.147319,-7.25647 -4.803847,-2.73895 -8.759432,-4.68808 -15.7020203,-9.60415 -1.5365245,-1.72102 -4.3045273,-2.57683 -5.6515911,-5.08392 -0.4652688,-0.67411 -1.1064766,-1.23734 -1.5438978,-2.50793 l 1.0092131,0.55581 c 0.9834362,0.84935 1.9227634,1.80162 3.1391988,2.1073 1.7848566,0.76521 3.6631724,1.31236 5.6916373,1.50915 1.734656,0.0808 3.580832,-0.0615 5.389809,-0.12936 4.602914,-0.4671 8.909548,-1.28973 13.108014,-2.24216 0,0 6.471191,-1.56977 9.40939,-2.68381 2.386487,-0.90485 4.984637,-1.58273 7.43207,-1.84146 1.898251,-0.20066 4.120273,-0.47738 6.183801,-0.39023 2.93254,0.12385 5.915392,0.39595 8.70993,1.29355 1.138763,0.36577 3.192359,1.63828 3.192359,1.63828 -0.0075,0.0603 -10.058773,-9.67664 -13.293362,-15.73251 -4.094875,-7.66652 -6.578311,-18.35991 -7.195489,-25.06225 C 44.446914,102.45222 42.3532,97.265375 42.258252,97.261059 l -3.963615,-3.048937 c -0.338895,-0.260689 -0.158812,-1.214055 -0.361538,-1.793639 3.131991,2.306733 6.887257,3.615328 10.484004,5.147468 6.574419,2.443709 12.973501,4.010739 19.391233,5.671019 12.113128,6.90928 14.045655,8.95054 25.184433,14.64189 8.647111,4.41824 15.193191,11.53499 16.479131,16.69382 l 2.82569,11.33586 m 29.09862,71.54869 -0.0108,-0.0108 c 3.73499,3.10526 6.68603,4.9988 7.98865,5.0196 0,0 18.36081,-0.81485 27.52311,-1.50175 8.38544,-0.62866 16.7195,-1.60314 25.11281,-2.39677 1.43104,-0.1332 4.25787,0.4315 6.57059,0.73914 -2.67202,-0.47444 -4.43277,-2.27351 -6.65683,-3.32625 -4.14522,-1.96211 -8.61257,-2.33119 -13.45296,-4.74303 -3.86629,-1.61283 -7.73258,-3.30552 -11.59887,-6.03659 -3.43559,-1.66923 -4.91596,-3.61778 -7.33014,-5.43293 -3.91979,-2.5703 -7.598,-4.49137 -11.75937,-5.70307 -5.0021,-1.4565 -11.13936,-0.98683 -15.33092,-0.87527 l -28.73193,3.13454"
           sodipodi:nodetypes="ccccccscccsccsccccsscssccsssscsscccscccccscsccccsccccccccccsssscsccscccsscc" /></g></g><g
       id="g155"
       transform="rotate(19.795876,100.75528,161.03973)"
       style="display:inline"
       inkscape:path-effect="#path-effect3"><path
         id="rect30"
         style="fill:#faebd7;fill-opacity:1;stroke:#4a4a4a;stroke-width:1.2;stroke-dasharray:none;stroke-opacity:1"
         d="m 88.434071,14.89565 h 19.827859 l -1.32271,57.371227 -1.25485,52.283403 c -4.82537,0.79471 -9.622981,2.09527 -14.238577,-1.98248 z"
         sodipodi:nodetypes="cccccc"
         inkscape:original-d="m 90.981682,14.133678 h 14.732638 v 57.766843 l -0.0493,52.643939 c -4.80642,0.80019 -9.612613,2.10971 -14.158678,-1.99615 z" /><g
         id="g1"><path
           id="path87"
           style="fill:#cf45ad;fill-opacity:0;stroke:#4a4a4a;stroke-width:0.65;stroke-dasharray:none;stroke-opacity:1"
           d="m 100.75917,69.517812 h 6.08815 z m -10.910729,0 6.204672,-0.0082 z"
           inkscape:original-d="m 100.40026,69.1325 h 5.1819 z m -9.286619,0 5.28112,-0.0083 z" /><path
           id="path153"
           style="fill:#cf45ad;fill-opacity:0;stroke:#4a4a4a;stroke-width:0.465;stroke-dasharray:none;stroke-opacity:1"
           inkscape:label="path153"
           d="m 102.87414,21.846541 h 5.05172 z m -14.105088,0 h 5.051724 z m 14.062588,3.972606 h 5.00428 z m -13.972639,0 h 5.004287 z m 13.930129,3.972606 h 4.95685 z m -13.84018,0 h 4.95685 z m 13.79768,3.972606 h 4.90942 z m -13.707731,0 h 4.909412 z m 13.665231,3.972606 h 4.86198 z m -13.575282,0 h 4.861975 z m 13.532782,3.972606 h 4.81454 z m -13.442833,0 h 4.814538 z m 13.400333,3.972606 h 4.7671 z m -13.310384,0 h 4.767101 z m 13.267884,3.972606 h 4.71966 z m -13.177934,0 h 4.719663 z m 13.135424,3.972606 h 4.67223 z m -13.045475,0 h 4.672226 z m 13.002975,3.972606 h 4.62479 z m -12.913026,0 h 4.624789 z m 12.870526,3.972606 h 4.57735 z m -12.780577,0 h 4.577352 z m 12.738077,3.972605 h 4.52991 z m -12.648128,0 h 4.529915 z m 12.563128,7.945212 h 4.43504 z m -12.38323,0 h 4.435041 z m 12.34072,3.972606 h 4.38761 z m -12.250771,0 h 4.387604 z m 12.208271,3.972606 h 4.34017 z m -12.118322,0 h 4.340167 z m 12.075822,3.972606 h 4.29273 z m -11.985873,0 h 4.29273 z m 11.943373,3.972606 h 4.24529 z m -11.853424,0 h 4.245293 z m 11.810924,3.972606 h 4.19785 z m -11.720974,0 h 4.197855 z m 11.678474,3.972606 h 4.15041 z m -11.588525,0 h 4.150418 z m 11.546015,3.972606 h 4.10299 z m -11.456066,0 h 4.102981 z m 11.413566,3.97261 h 4.05555 z m -11.323617,0 h 4.055544 z m 11.281117,3.9726 h 4.00811 z m -11.191168,0 h 4.008107 z m 11.148668,3.97261 h 3.96067 z m -11.058719,0 h 3.96067 z m 11.016219,3.9726 h 3.91323 z m -10.92627,0 h 3.913233 z"
           inkscape:original-d="m 101.7663,21.1325 h 3.81524 z m -10.652659,0 h 3.81524 z m 10.652659,4 h 3.81524 z m -10.652659,0 h 3.81524 z m 10.652659,4 h 3.81524 z m -10.652659,0 h 3.81524 z m 10.652659,4 h 3.81524 z m -10.652659,0 h 3.81524 z m 10.652659,4 h 3.81524 z m -10.652659,0 h 3.81524 z m 10.652659,4 h 3.81524 z m -10.652659,0 h 3.81524 z m 10.652659,4 h 3.81524 z m -10.652659,0 h 3.81524 z m 10.652659,4 h 3.81524 z m -10.652659,0 h 3.81524 z m 10.652659,4 h 3.81524 z m -10.652659,0 h 3.81524 z m 10.652659,4 h 3.81524 z m -10.652659,0 h 3.81524 z m 10.652659,4 h 3.81524 z m -10.652659,0 h 3.81524 z m 10.652659,4 h 3.81524 z m -10.652659,0 h 3.81524 z m 10.652659,8 h 3.81524 z m -10.652659,0 h 3.81524 z m 10.652659,4 h 3.81524 z m -10.652659,0 h 3.81524 z m 10.652659,4 h 3.81524 z m -10.652659,0 h 3.81524 z m 10.652659,4 h 3.81524 z m -10.652659,0 h 3.81524 z m 10.652659,4 h 3.81524 z m -10.652659,0 h 3.81524 z m 10.652659,4 h 3.81524 z m -10.652659,0 h 3.81524 z m 10.652659,4 h 3.81524 z m -10.652659,0 h 3.81524 z m 10.652659,4 h 3.81524 z m -10.652659,0 h 3.81524 z m 10.652659,4 h 3.81524 z m -10.652659,0 h 3.81524 z m 10.652659,4 h 3.81524 z m -10.652659,0 h 3.81524 z m 10.652659,4 h 3.81524 z m -10.652659,0 h 3.81524 z m 10.652659,4 h 3.81524 z m -10.652659,0 h 3.81524 z" /></g></g></g></svg>
