<?xml version="1.0" encoding="UTF-8" standalone="no"?>
<!-- Created with Inkscape (http://www.inkscape.org/) -->

<svg
   width="265mm"
   height="64mm"
   viewBox="0 0 265 64"
   version="1.1"
   id="svg1"
   sodipodi:docname="logotype final.svg"
   inkscape:version="1.3 (0e150ed6c4, 2023-07-21)"
   inkscape:export-filename="logotype final smaller.svg"
   inkscape:export-xdpi="96"
   inkscape:export-ydpi="96"
   xmlns:inkscape="http://www.inkscape.org/namespaces/inkscape"
   xmlns:sodipodi="http://sodipodi.sourceforge.net/DTD/sodipodi-0.dtd"
   xmlns="http://www.w3.org/2000/svg"
   xmlns:svg="http://www.w3.org/2000/svg">
  <sodipodi:namedview
     id="namedview1"
     pagecolor="#ffffff"
     bordercolor="#000000"
     borderopacity="0.25"
     inkscape:showpageshadow="2"
     inkscape:pageopacity="0.0"
     inkscape:pagecheckerboard="0"
     inkscape:deskcolor="#d1d1d1"
     inkscape:document-units="mm"
     inkscape:zoom="0.70710678"
     inkscape:cx="591.14127"
     inkscape:cy="615.89"
     inkscape:window-width="1920"
     inkscape:window-height="1057"
     inkscape:window-x="-8"
     inkscape:window-y="-8"
     inkscape:window-maximized="1"
     inkscape:current-layer="layer1" />
  <defs
     id="defs1" />
  <g
     inkscape:label="Warstwa 1"
     inkscape:groupmode="layer"
     id="layer1">
    <path
       id="text2"
       style="font-size:192px;font-family:'Agree Personal Use';-inkscape-font-specification:'Agree Personal Use';white-space:pre;fill:#000000;fill-opacity:0.859259;stroke:#000000;stroke-width:0.600001"
       d="M 9.8088259,10.043591 V 25.384774 H 13.974463 V 14.209229 H 25.75979 c 3.098794,0.0508 5.639089,2.590781 5.588289,5.689575 0,3.454394 -2.692695,6.654374 -5.588289,6.654374 l -7.213513,0.05116 -8.6868081,8.68681 v 9.82213 h -0.0057 v 7.82803 h 1.7234091 2.454631 c 80.431615,0 240.995281,2.2e-4 240.995281,2.2e-4 v -9.1124 h -4.456 v 4.75578 l -236.539266,-4.9e-4 v -3.45202 h -0.0067 v -8.11422 l 6.299357,-6.2482 5.435327,-0.0512 c 5.740388,0 9.753927,-5.689225 9.753927,-10.820015 0,-5.384788 -4.369137,-9.80457 -9.753927,-9.80457 z M 44.423041,45.806618 V 10.094221 h -4.1656 v 35.712397 z m 25.95877,-26.365196 v 16.713196 l -5.4864,5.4864 -0.254,-0.0508 c -4.622799,-0.4572 -8.127999,-4.318 -8.178799,-8.9408 V 19.441422 h -4.1656 v 13.207996 c 0.0508,7.3152 6.096,13.208 13.411199,13.1572 h 0.8636 l 3.81,-3.81 v 3.7084 h 4.1656 V 19.441422 Z m 39.471619,-0.1016 h -0.9144 l -5.89279,6.6548 -0.3556,-0.6096 c -2.0828,-3.6576 -5.943606,-5.9944 -10.210806,-6.0452 h -0.9144 l -4.2672,4.826 v -4.6736 h -4.1656 v 26.314396 h 4.1656 v -15.3924 l 6.096,-6.857996 0.254,0.0508 c 3.9116,0.6604 6.807206,4.4704 6.807206,8.940796 v 13.1572 h 4.1656 v -13.1572 c 0,-0.5588 0,-1.1176 -0.1016,-1.6764 v -0.254 l 6.24839,-7.061196 0.3048,0.0508 c 3.8608,0.6604 6.8072,4.4704 6.8072,8.940796 v 13.1572 h 4.1148 v -13.1572 c 0,-7.264396 -5.4356,-13.207996 -12.1412,-13.207996 z m 40.79242,0.1016 -0.508,-0.0508 h -8.0772 c -4.7752,-0.0508 -9.1948,2.4384 -11.6332,6.5532 -2.3876,4.114796 -2.3876,9.194796 0,13.309596 2.4384,4.1148 6.858,6.604 11.6332,6.5532 h 0.8128 l 5.334,-5.334 v 5.2832 h 4.1656 V 19.441422 Z m -2.4384,15.138396 -7.0104,7.0104 -0.254,-0.0508 c -4.826,-0.4064 -8.4328,-4.6228 -8.128,-9.4996 0.254,-4.825996 4.3688,-8.585196 9.1948,-8.483596 h 6.1976 z m 22.75836,7.0612 c -0.3048,0.0508 -0.6604,0.1016 -0.9652,0.1016 -2.8956,0 -5.2832,-2.3368 -5.2832,-5.1816 V 23.403822 h 6.8072 v -4.064 h -6.8072 v -9.245601 h -4.1656 v 26.466797 c 0.0508,5.1308 4.2672,9.2964 9.398,9.2456 0.762,0 1.4732,-0.1016 2.1844,-0.254 z m 18.38965,-22.301196 h -0.8636 l -5.2832,5.334 V 10.094221 h -4.1656 v 35.712397 h 4.1656 v -15.2908 l 7.0104,-6.959596 h 0.254 c 4.572,0.508 8.128,4.3688 8.1788,8.991596 v 13.1572 h 4.1656 v -13.1572 c -0.1016,-7.365996 -6.096,-13.258796 -13.462,-13.207996 z m 23.46962,-5.08 c 1.1176,0 2.0828,-0.9652 2.0828,-2.0828 0,-1.117601 -0.9652,-2.082801 -2.0828,-2.082801 -1.1176,0 -2.0828,0.9652 -2.0828,2.082801 0,1.1176 0.9652,2.0828 2.0828,2.0828 z m 2.0828,31.546796 V 19.492222 h -4.1656 v 26.314396 z m 29.20998,-26.365196 -0.508,-0.0508 h -8.0772 c -4.7752,-0.0508 -9.1948,2.4384 -11.6332,6.5532 -2.3876,4.114796 -2.3876,9.194796 0,13.309596 2.4384,4.1148 6.858,6.604 11.6332,6.5532 h 0.8128 l 5.334,-5.334 v 5.2832 h 4.1656 V 19.441422 Z m -2.4384,15.138396 -7.0104,7.0104 -0.254,-0.0508 c -4.826,-0.4064 -8.4328,-4.6228 -8.128,-9.4996 0.254,-4.825996 4.3688,-8.585196 9.1948,-8.483596 h 6.1976 z" />
  </g>
</svg>
